# xmcd
#
# Track frame offsets: 
#        150
#        12485
#        26060
#        39335
#        52760
#        65360
#        80435
#        95060
#        108260
#        122135
#        135485
#        147785
#        161060
#        191885
#        208272
#        221810
#        245622
#        257847
#        275022
#        290127
#        303335
#
# Disc length: 4358 seconds
#
# Revision: 0
# Processed by: cddbd v1.5PL3 Copyright (c) Steve Scherf et al.
# Submitted via: ExactAudioCopy v0.95a4
#
DISCID=44110415
DTITLE=John Lee Hooker - Chess Masters
DYEAR=1986
DGENRE=Blues
TTITLE0=Walkin' Boogie
TTITLE1=Love Blues
TTITLE2=Union Station Blues
TTITLE3=It's My Own Fault
TTITLE4=Leave My Wife Alone
TTITLE5=Ramblin' By Myself
TTITLE6=Sugar Mama
TTITLE7=Down At The Landing
TTITLE8=Louise
TTITLE9=Ground Hog Blues
TTITLE10=High Priced Woman
TTITLE11=Women And Money
TTITLE12=Let's Go Out Tonight
TTITLE13=Peace Lovin' Man
TTITLE14=Stella Mae
TTITLE15=I Put My Trust In You
TTITLE16=In The Mood
TTITLE17=You Know, I Know
TTITLE18=I'll Never Trust Your Love Again
TTITLE19=One Bourbon, One Scotch, One Beer
TTITLE20=The Waterfront
EXTD=
EXTT0=
EXTT1=
EXTT2=
EXTT3=
EXTT4=
EXTT5=
EXTT6=
EXTT7=
EXTT8=
EXTT9=
EXTT10=
EXTT11=
EXTT12=
EXTT13=
EXTT14=
EXTT15=
EXTT16=
EXTT17=
EXTT18=
EXTT19=
EXTT20=
PLAYORDER=
